# xmcd
#
# Track frame offsets: 
#        150
#        14108
#        27574
#        39719
#        52220
#        68789
#        87053
#        99277
#        109415
#        119869
#        131387
#
# Disc length: 1891 seconds
#
# Revision: 1
# Processed by: cddbd v1.5.2PL0 Copyright (c) Steve Scherf et al.
# Submitted via: ExactAudioCopyFreeDBPlugin 1.0
#
DISCID=a107610b
DTITLE=John Lee Hooker - Luxury Edition
DYEAR=2003
DGENRE=Blues
TTITLE0=Time Is Marching
TTITLE1=Trouble Blue
TTITLE2=Everybody's Rockin
TTITLE3=Crawlin Black Spider
TTITLE4=Mama You've Got A Daughter
TTITLE5=House Rent Boogie
TTITLE6=I'm Mad Again
TTITLE7=I Wanna Walk
TTITLE8=Run On
TTITLE9=Boom Boom
TTITLE10=Maudi
EXTD=YEAR: 2003
EXTT0=
EXTT1=
EXTT2=
EXTT3=
EXTT4=
EXTT5=
EXTT6=
EXTT7=
EXTT8=
EXTT9=
EXTT10=
PLAYORDER=
